<?xml version="1.0" encoding="utf-8" ?><svg xmlns="http://www.w3.org/2000/svg" xmlns:xlink="http://www.w3.org/1999/xlink" width="89" height="89" viewBox="0 0 89 89"><path transform="scale(0.0978022 0.173828)" d="M485.941 38.4078C490.136 39.2529 490.904 46.9989 493.988 50.2159C505.415 62.1386 526.43 69.9536 540.882 78.7154C546.114 80.3209 560.716 93.7974 564.367 94.709C604.728 104.786 628.733 131.112 635.113 173.138C638.485 195.351 636.938 193.28 646.331 215.451C658.706 244.663 656.095 254.449 658.143 284.557C659.287 301.372 661.381 321.317 663.233 338.392C664.139 346.753 667.932 353.852 667.171 362.614C666.943 366.601 664.502 371.312 664.089 375.108C663.043 384.712 649.047 470.987 640.969 471.974C638.93 469.912 640.05 465.856 640.705 463.456C646.767 443.839 652.15 423.407 655.588 403.165C659.039 388.49 663.83 356.607 659.481 342.917C657.073 335.336 654.202 292.624 653.21 281.665C652.669 237.312 647.924 237.469 633.989 197.484C629.759 216.586 631.944 196.775 631.797 188.709C631.19 155.464 617.896 124.314 587.531 107.857C574.987 100.367 565.052 101.53 553.836 96.2761C555.671 96.2213 557.721 96.2723 559.576 96.2761C544.591 86.3843 532.661 79.0433 516.7 70.2772C508.997 66.0464 479.291 50.7798 485.941 38.4078Z"/><path transform="scale(0.0978022 0.173828)" d="M501.457 188.722C501.93 189.169 503.298 192.609 503.961 193.693C514.333 210.651 537.174 219.441 552.27 231.866C543.8 227.382 533.922 221.388 525.49 216.542C534.959 245.941 533.201 267.112 548.314 298.228C558.09 318.486 579.926 335.466 584.201 357.361C585.743 349.011 588.577 338.187 590.408 329.346C591.891 350.696 581.683 365.88 577.499 385.356C572.404 409.071 573.144 435.683 572.193 459.938C572.109 462.079 572.828 473.248 568.264 470.858C565.242 465.982 569.742 403.778 571.366 394.498C578.523 353.59 589.47 365.848 561.187 325.679C551.84 347.584 537.187 386.349 541.442 408.098C542.622 414.131 551.175 431.941 553.836 439.861C555.449 444.99 562.605 467.734 558.206 471.083C554.959 470.976 554.999 467.617 554.777 464.894C553.167 445.139 543.572 428.408 537.202 410.179C529.424 387.918 550.902 341.375 558.044 320.363C531.756 283.648 533.728 256.234 523.755 216.542C521.623 214.511 520.043 212.839 517.491 211.334C484.008 214.714 465.442 240.498 434.781 253.46C414.995 261.825 375.417 266.917 355.792 259.07C449.333 272.779 455.447 218.245 515.184 209.579C508.149 203.498 502.797 198.068 501.457 188.722Z"/><path transform="scale(0.0978022 0.173828)" d="M380.043 53.5581C384.761 53.7902 384.22 59.6188 385.155 63.2968C390.109 82.7803 398.132 100.38 385.178 118.929C386.62 114.916 388.387 104.158 388.845 100.011C379.653 106.955 372.998 107.732 370.344 118.929C349.436 135.64 326.527 163.612 315.926 188.495C309.132 204.44 305.984 237.695 316.648 253.042C321.008 259.318 330.548 259.939 337.584 260.717C334.54 261.704 327.453 262.308 323.907 262.708C321.804 274.222 324.151 291.293 327.409 302.16C332.336 298.534 333.492 298.159 339.388 296.621C333.923 299.749 331.706 300.738 327.409 305.285C325.216 319.157 326.809 337.401 333.869 349.773C336.897 351.921 339.45 351.925 342.032 353.953L341.78 354.308C338.652 354.293 336.819 353.528 333.869 352.565C334.545 364.628 330.104 387.51 338.903 398.172C340.29 399.853 343.013 400.624 344.687 402.203L344.428 402.688L343.286 402.887C340.179 402.101 337.684 400.075 335.274 398.046C335.027 401.729 334.54 404.331 333.869 407.974C334.343 413.809 336.167 469.037 332.523 471.252C326.343 469.157 330.537 401.639 331.247 394.36C331.48 391.963 329.404 387.141 329.282 384.544C328.408 374.768 328.551 361.948 331.357 352.565C321.482 338.653 322.171 321.259 323.907 305.285C318.362 285.04 320.55 281.93 319.619 263.093L319.598 262.708C299.341 245.217 302.958 205.592 313.1 183.809C323.601 161.258 346.327 132.193 366.205 117.246C370.033 105.621 378.107 101.766 388.845 96.2761C387.373 87.8042 378.197 58.0746 380.043 53.5581Z"/><path fill="#6D98C9" transform="scale(0.0978022 0.173828)" d="M280.493 302.16C283.632 301.939 288.587 305.187 291.084 307.078C292.849 308.414 283.19 314.361 280.878 312.804C281.514 311.359 282.807 310.691 284.131 309.788C258.648 309.753 230.162 313.437 205.499 311.877C208.02 313.331 209.338 314.135 211.112 316.425C207.561 318.967 201.645 313.14 199.337 310.74C202 309.308 207.676 305.039 210.031 305.104L210.282 305.85C209.841 307.294 208.266 307.996 206.934 308.821C233.312 309.254 258.268 306.622 284.131 306.642C282.41 305.169 280.973 304.296 280.493 302.16Z"/><path fill="#6D98C9" transform="scale(0.0978022 0.173828)" d="M285.305 403.434C299.229 402.511 294.712 415.175 286.013 414.273L285.725 413.58C286.218 411.775 287.283 410.977 288.629 409.664C262.499 411.167 235.333 414.203 209.101 414.377C211.44 416.111 215.109 417.567 213.302 420.663L202.651 413.66C204.942 411.35 209.358 407.3 212.615 406.855L212.805 407.353C211.868 409.3 210.713 410.147 209.101 411.606C234.337 411.466 263.394 409.041 288.629 407.163C286.784 405.622 285.678 406.283 285.305 403.434Z"/><path transform="scale(0.0978022 0.173828)" d="M342.22 305.285C342.337 305.418 343.791 337.086 345.07 342.279C346.391 347.644 348.433 351.696 349.012 357.361C347.203 367.62 346.3 378.229 347.856 388.553C350.771 407.889 348.292 403.506 345.607 422.867C345.27 425.302 345.487 432.035 345.029 433.057L344.772 431.458C342.172 421.487 345.593 408.64 349.012 399.242C342.657 386.779 342.254 369.741 349.012 357.361C339.892 342.645 336.692 321.813 342.22 305.285Z"/><path transform="scale(0.0978022 0.173828)" d="M460.711 100.011C473.084 99.4949 489.294 99.8794 501.457 102.215C500.44 102.526 479.33 102.002 475.598 102.164C458.005 102.93 431.59 103.848 414.404 107.81C402.734 110.435 399.855 120.693 388.845 125.832L389.785 124.729C412.882 97.9366 425.342 102.652 460.711 100.011Z"/><path transform="scale(0.0978022 0.173828)" d="M490.798 429.918L492.535 429.923C460.9 441.327 442.164 442.76 414.404 468.248C413.101 469.618 413.308 468.566 414.104 467.515C431.527 444.502 464.106 434.871 490.798 429.918Z"/><path transform="scale(0.0978022 0.173828)" d="M358.051 165.238C358.039 165.45 352.937 176.062 352.299 178.024C345.6 198.639 342.756 220.312 346.035 241.854C346.393 244.201 348.74 251.843 348.119 253.545L347.158 253.642C336.89 228.175 343.119 187.111 358.051 165.238Z"/><path transform="scale(0.0978022 0.173828)" d="M407.948 236.836C417.165 234.72 413.948 242.918 407.948 245.807C399.725 246.383 400.641 238.47 407.948 236.836ZM407.948 243.43C411.827 240.976 415.434 236.003 407.948 236.836C403.404 239.281 400.633 244.751 407.948 243.43Z"/><path transform="scale(0.0978022 0.173828)" d="M485.941 274.258C485.322 283.569 453.908 297.54 445.745 299.486C445.948 299.065 459.086 292.877 460.748 292.058C470.338 287.332 477.545 280.456 485.941 274.258Z"/><path transform="scale(0.0978022 0.173828)" d="M484.209 306.642C484.332 306.731 484.419 307.033 484.498 307.217C473.965 319.024 463.039 324.707 448.01 329.346L447.759 329.199C448 328.473 454.138 325.721 455.289 325.213C466.134 320.428 474.587 312.609 484.209 306.642Z"/><path transform="scale(0.0978022 0.173828)" d="M388.845 363.417C397.36 369.961 393.945 390.85 388.845 399.242L388.072 399.703C387.769 398.904 389.712 394.442 390.123 393.265C393.857 382.562 390.85 374.005 388.845 363.417Z"/><path transform="scale(0.0978022 0.173828)" d="M350.901 296.621C357.301 297.437 375.719 303.901 378.255 310.999L377.507 310.74C369.789 306.115 362.811 301.555 353.956 299.547C352.417 299.198 349.103 298.366 348.015 297.31L350.901 296.621Z"/><path transform="scale(0.0978022 0.173828)" d="M387.226 405.081C389.677 407.142 383.492 435.093 382.694 439.861L382.6 439.946C381.286 431.611 384.281 413.196 387.226 405.081Z"/><path transform="scale(0.0978022 0.173828)" d="M385.178 320.363C393.562 324.286 393.14 349.377 391.101 357.361L390.961 357.482C390.635 357.096 391.34 350.037 391.406 348.574C391.896 337.793 387.289 329.871 385.178 320.363Z"/><path transform="scale(0.0978022 0.173828)" d="M358.051 352.565C362.893 352.441 373.218 354.883 375.317 359.668L374.443 359.45C370.53 357.598 367.58 356.225 363.359 355.11C360.939 354.471 351.94 355.53 358.051 352.565Z"/><path transform="scale(0.0978022 0.173828)" d="M344.772 271.364C344.028 279.284 346.116 289.974 344.772 296.621C341.21 290.4 342.391 277.942 344.772 271.364Z"/><path transform="scale(0.0978022 0.173828)" d="M353.56 399.242C357.909 398.989 363.05 400.304 366.437 403.06L366.205 403.434C363.298 402.846 355.13 401.387 353.071 399.949L353.56 399.242Z"/></svg>